# xmcd
#
# Track frame offsets: 
#        150
#        20408
#        36893
#        55990
#        76200
#        97503
#        115849
#        133175
#        148648
#        165936
#        181832
#        200030
#        218462
#
# Disc length: 3199 seconds
#
# Revision: 0
# Processed by: cddbd v1.5.2PL0 Copyright (c) Steve Scherf et al.
# Submitted via: ExactAudioCopyFreeDBPlugin 1.0
#
DISCID=a30c7d0d
DTITLE=Jason Glover - These Dreams
DYEAR=2007
DGENRE=Pop
TTITLE0=Beautiful Places
TTITLE1=Maybe
TTITLE2=Someone To Love
TTITLE3=When You're Gone
TTITLE4=Save Me
TTITLE5=I Guess
TTITLE6=Back To See You
TTITLE7=Is It Just
TTITLE8=These Dreams
TTITLE9=Time
TTITLE10=All Right Now
TTITLE11=Leaving
TTITLE12=Driving With The Brakes On
EXTD=
EXTT0=
EXTT1=
EXTT2=
EXTT3=
EXTT4=
EXTT5=
EXTT6=
EXTT7=
EXTT8=
EXTT9=
EXTT10=
EXTT11=
EXTT12=
PLAYORDER=
